<?xml version="1.0" standalone="no"?>
<!DOCTYPE svg PUBLIC "-//W3C//DTD SVG 20010904//EN"
 "http://www.w3.org/TR/2001/REC-SVG-20010904/DTD/svg10.dtd">
<svg version="1.0" xmlns="http://www.w3.org/2000/svg"
 width="1024.000000pt" height="1024.000000pt" viewBox="0 0 1024.000000 1024.000000"
 preserveAspectRatio="xMidYMid meet">
<metadata>
Created by potrace 1.14, written by Peter Selinger 2001-2017
</metadata>
<g transform="translate(0.000000,1024.000000) scale(0.100000,-0.100000)"
fill="#000000" stroke="none">
<path d="M660 5120 l0 -4460 4460 0 4460 0 0 4460 0 4460 -4460 0 -4460 0 0
-4460z m2920 2925 l0 -1385 -1385 0 -1385 0 0 1385 0 1385 1385 0 1385 0 0
-1385z m2930 0 l0 -1385 -1390 0 -1390 0 0 1385 0 1385 1390 0 1390 0 0 -1385z
m2920 0 l0 -1385 -1385 0 -1385 0 0 1385 0 1385 1385 0 1385 0 0 -1385z
m-5850 -2925 l0 -1390 -1385 0 -1385 0 0 1390 0 1390 1385 0 1385 0 0 -1390z
m2930 0 l0 -1390 -1390 0 -1390 0 0 1390 0 1390 1390 0 1390 0 0 -1390z m2920
0 l0 -1390 -1385 0 -1385 0 0 1390 0 1390 1385 0 1385 0 0 -1390z m-5850
-2925 l0 -1385 -1385 0 -1385 0 0 1385 0 1385 1385 0 1385 0 0 -1385z m2930 0
l0 -1385 -1390 0 -1390 0 0 1385 0 1385 1390 0 1390 0 0 -1385z m2920 0 l0
-1385 -1385 0 -1385 0 0 1385 0 1385 1385 0 1385 0 0 -1385z"/>
<path d="M5025 9249 c-210 -15 -405 -84 -590 -209 -375 -253 -578 -720 -510
-1171 38 -256 156 -490 340 -675 427 -429 1100 -475 1587 -109 347 261 528
705 464 1135 -40 263 -157 493 -346 680 -257 255 -580 374 -945 349z"/>
<path d="M7860 6315 c-475 -75 -859 -425 -987 -902 -25 -90 -27 -113 -27 -293
0 -180 2 -203 27 -293 129 -481 515 -830 997 -903 503 -75 1004 179 1242 632
98 185 138 350 138 564 0 214 -40 379 -138 564 -240 455 -746 710 -1252 631z"/>
<path d="M1985 3385 c-424 -78 -785 -382 -929 -783 -69 -192 -87 -442 -46
-641 117 -574 603 -972 1185 -972 337 0 630 124 862 364 154 159 253 333 309
545 36 134 44 357 19 499 -79 441 -385 800 -805 943 -168 57 -425 77 -595 45z"/>
<path d="M4906 3384 c-368 -67 -691 -307 -862 -642 -336 -658 -5 -1460 701
-1696 227 -76 517 -77 749 -1 178 58 336 156 476 295 376 372 465 933 225
1404 -172 338 -494 575 -869 641 -109 19 -313 18 -420 -1z"/>
<path d="M7820 3382 c-506 -106 -875 -483 -965 -985 -25 -142 -17 -365 19
-499 104 -390 393 -708 764 -842 309 -111 670 -86 967 67 398 206 646 617 646
1072 0 336 -123 627 -363 861 -155 152 -333 253 -546 310 -131 36 -391 43
-522 16z"/>
</g>
</svg>
